<?xml version="1.0" encoding="utf-8"?>
<!-- Generator: Adobe Illustrator 21.1.0, SVG Export Plug-In . SVG Version: 6.00 Build 0)  -->
<svg version="1.1" id="Layer_1" xmlns="http://www.w3.org/2000/svg" xmlns:xlink="http://www.w3.org/1999/xlink" x="0px" y="0px"
	 viewBox="0 0 18.7 23" style="enable-background:new 0 0 18.7 23;" xml:space="preserve">
<style type="text/css">
	.st0{fill:#FFFFFF;}
</style>
<g id="XMLID_798_">
	<path id="XMLID_799_" class="st0" d="M15.5,3c-1.5-1.4-3.5-2.2-5.7-2.2c-3.4,0-5.5,1.4-6.6,2.6C1.8,4.8,1,6.8,1,8.6
		c0,2.4,1,4.2,2.6,4.9c0.1,0,0.2,0.1,0.3,0.1c0.3,0,0.6-0.2,0.7-0.6c0.1-0.2,0.2-0.7,0.2-1c0.1-0.4,0-0.7-0.2-1
		C4.2,10.5,4,9.8,4,8.9c0-2.6,1.9-5.4,5.5-5.4c2.8,0,4.6,1.6,4.6,4.2c0,1.6-0.4,3.2-1,4.3c-0.4,0.8-1.2,1.7-2.4,1.7
		c-0.5,0-1-0.2-1.3-0.6c-0.3-0.4-0.4-0.8-0.3-1.3c0.1-0.5,0.3-1.1,0.5-1.6c0.3-1,0.6-1.9,0.6-2.7c0-1.3-0.8-2.1-1.9-2.1
		C6.8,5.5,5.6,7,5.6,8.9c0,0.9,0.3,1.6,0.4,1.9c-0.2,0.8-1.3,5.5-1.5,6.4c-0.1,0.5-0.9,4.6,0.4,4.9c1.4,0.4,2.6-3.6,2.7-4.1
		c0.1-0.4,0.5-1.7,0.7-2.6c0.7,0.6,1.7,1.1,2.7,1.1c1.9,0,3.7-0.9,4.9-2.5c1.2-1.5,1.8-3.7,1.8-6C17.7,6.2,16.9,4.4,15.5,3z"/>
</g>
</svg>
