<?xml version="1.0" encoding="utf-8"?>
<!-- Generator: Adobe Illustrator 21.1.0, SVG Export Plug-In . SVG Version: 6.00 Build 0)  -->
<svg version="1.0" id="Слой_1" xmlns="http://www.w3.org/2000/svg" xmlns:xlink="http://www.w3.org/1999/xlink" x="0px" y="0px"
	 viewBox="0 0 11.4 18" style="enable-background:new 0 0 11.4 18;" xml:space="preserve">
<style type="text/css">
	.st0{fill:#FFFFFF;}
</style>
<g id="XMLID_828_">
	<path id="XMLID_829_" class="st0" d="M11.2,13.7c-0.1,0-0.2,0-0.3,0c-0.8,0.5-1.6,0.8-2.5,0.8c-0.5,0-0.8-0.1-1.2-0.3
		c-0.2-0.1-0.4-0.3-0.5-0.5c0.1-0.2,0-0.6,0-1.8V7.7h3.8c0.2,0,0.3-0.1,0.3-0.3V4.7c0-0.2-0.1-0.3-0.3-0.3H6.7V0.3
		C6.7,0.1,6.5,0,6.4,0H3.9C3.7,0,3.6,0.1,3.6,0.3C3.5,1.1,3.3,1.8,3,2.4c-0.3,0.5-0.6,1-1.1,1.4s-1,0.7-1.7,0.9C0.2,4.7,0,4.8,0,5
		v2.5c0,0.2,0.1,0.3,0.3,0.3h1.6v5.8c0,0.9,0.1,1.5,0.3,1.9c0.2,0.5,0.5,0.9,1,1.3s1,0.7,1.7,0.9C5.5,17.9,6.3,18,7.1,18
		c0.7,0,1.4-0.1,2-0.2s1.3-0.4,2.1-0.7c0.1,0,0.2-0.1,0.2-0.2V14C11.4,13.9,11.3,13.8,11.2,13.7z"/>
</g>
</svg>
