<svg id="Layer_1" data-name="Layer 1" xmlns="http://www.w3.org/2000/svg" viewBox="0 0 12 19.5"><defs><style>.cls-1{fill:#fff;}</style></defs><title>Монтажная область 1</title><g id="_Группа_" data-name="&lt;Группа&gt;"><path id="_Контур_" data-name="&lt;Контур&gt;" class="cls-1" d="M11.5,14.7h-.3a4.63,4.63,0,0,1-2.5.8,2.38,2.38,0,0,1-1.2-.3,1.21,1.21,0,0,1-.5-.5,9,9,0,0,0,0-1.8V8.7h3.8a.27.27,0,0,0,.3-.3V5.7a.27.27,0,0,0-.3-.3H7V1.3A.32.32,0,0,0,6.7,1H4.2a.27.27,0,0,0-.3.3,6.46,6.46,0,0,1-.6,2.1A4.86,4.86,0,0,1,2.2,4.8a4.61,4.61,0,0,1-1.7.9A.37.37,0,0,0,.3,6V8.5a.27.27,0,0,0,.3.3H2.2v5.8a4.39,4.39,0,0,0,.3,1.9,3.05,3.05,0,0,0,1,1.3,4.61,4.61,0,0,0,1.7.9,7.32,7.32,0,0,0,2.2.3,12.31,12.31,0,0,0,2-.2,12.84,12.84,0,0,0,2.1-.7.22.22,0,0,0,.2-.2V15C11.7,14.9,11.6,14.8,11.5,14.7Z"/></g></svg>